<svg width="50" height="50" viewBox="0 0 50 50" fill="none" xmlns="http://www.w3.org/2000/svg">
<g clip-path="url(#clip0_13_992)">
<path d="M11.8779 11L6.37794 17V20" stroke="#FF0000" stroke-width="2"/>
<path d="M6.37794 23L6.91329 33.2656" stroke="#FF0000" stroke-width="2"/>
<path d="M7.37793 37L7.87793 43.5L10.3779 44" stroke="#FF0000" stroke-width="2"/>
<path d="M13.3779 44.7L19.3779 45.7L21.8779 44.2" stroke="#FF0000" stroke-width="2"/>
<path d="M24.3779 42.5L31.8779 37" stroke="#FF0000" stroke-width="2"/>
<path d="M34.3779 35L38.8779 32V28" stroke="#FF0000" stroke-width="2"/>
<path d="M14.3779 9L18.3779 5H21.3779" stroke="#FF0000" stroke-width="2"/>
<path d="M24 5H32" stroke="#FF0000" stroke-width="2"/>
<path d="M38.5779 16L38.8536 25" stroke="#FF0000" stroke-width="2"/>
<path d="M38.3779 14L37.2351 5H34.3779" stroke="#FF0000" stroke-width="2"/>
<rect x="8.5" y="20.5" width="36" height="23.2635" fill="#51B437" stroke="black"/>
<mask id="path-12-outside-1_13_992" maskUnits="userSpaceOnUse" x="19.3333" y="23" width="15" height="17" fill="black">
<rect fill="white" x="19.3333" y="23" width="15" height="17"/>
<path d="M22.6913 24.4545L27.0095 36.6989H27.1799L31.4981 24.4545H33.3447L28.0038 39H26.1856L20.8447 24.4545H22.6913Z"/>
</mask>
<path d="M22.6913 24.4545L27.0095 36.6989H27.1799L31.4981 24.4545H33.3447L28.0038 39H26.1856L20.8447 24.4545H22.6913Z" fill="black"/>
<path d="M22.6913 24.4545L23.1628 24.2882L23.0451 23.9545H22.6913V24.4545ZM27.0095 36.6989L26.5379 36.8652L26.6556 37.1989H27.0095V36.6989ZM27.1799 36.6989V37.1989H27.5338L27.6515 36.8652L27.1799 36.6989ZM31.4981 24.4545V23.9545H31.1443L31.0266 24.2882L31.4981 24.4545ZM33.3447 24.4545L33.8141 24.6269L34.0609 23.9545H33.3447V24.4545ZM28.0038 39V39.5H28.3528L28.4731 39.1723L28.0038 39ZM26.1856 39L25.7162 39.1723L25.8366 39.5H26.1856V39ZM20.8447 24.4545V23.9545H20.1285L20.3753 24.6269L20.8447 24.4545ZM22.2197 24.6208L26.5379 36.8652L27.481 36.5326L23.1628 24.2882L22.2197 24.6208ZM27.0095 37.1989H27.1799V36.1989H27.0095V37.1989ZM27.6515 36.8652L31.9696 24.6208L31.0266 24.2882L26.7084 36.5326L27.6515 36.8652ZM31.4981 24.9545H33.3447V23.9545H31.4981V24.9545ZM32.8753 24.2822L27.5344 38.8277L28.4731 39.1723L33.8141 24.6269L32.8753 24.2822ZM28.0038 38.5H26.1856V39.5H28.0038V38.5ZM26.655 38.8277L21.3141 24.2822L20.3753 24.6269L25.7162 39.1723L26.655 38.8277ZM20.8447 24.9545H22.6913V23.9545H20.8447V24.9545Z" fill="black" mask="url(#path-12-outside-1_13_992)"/>
<path d="M37.7597 32H33.5C33.2239 32 33 32.2239 33 32.5V45.5C33 45.7761 33.2239 46 33.5 46H47.3131C47.5862 46 47.8087 45.781 47.8131 45.508L47.9919 34.361C47.9963 34.0817 47.7712 33.8529 47.4919 33.8529H38.7597C38.4836 33.8529 38.2597 33.6291 38.2597 33.3529V32.5C38.2597 32.2239 38.0359 32 37.7597 32Z" fill="#FCD94F" stroke="#B29A37"/>
<path d="M35.355 37.3684L33.1723 45.3684C33.0855 45.6865 33.325 46 33.6547 46H47.3436C47.5728 46 47.7726 45.8443 47.8285 45.6221L49.8433 37.6221C49.9229 37.3063 49.6841 37 49.3585 37H35.8374C35.612 37 35.4144 37.1509 35.355 37.3684Z" fill="#FCD94F" stroke="#B29A37"/>
</g>
<defs>
<clipPath id="clip0_13_992">
<rect width="50" height="50" fill="white"/>
</clipPath>
</defs>
</svg>
