<svg width="50" height="50" viewBox="0 0 50 50" fill="none" xmlns="http://www.w3.org/2000/svg">
<path d="M13.8779 11L8.37794 17V20" stroke="#FF0000" stroke-width="2"/>
<path d="M8.37794 23L8.91329 33.2656" stroke="#FF0000" stroke-width="2"/>
<path d="M9.37794 37L9.87794 43.5L12.3779 44" stroke="#FF0000" stroke-width="2"/>
<path d="M15.3779 44.7L21.3779 45.7L23.8779 44.2" stroke="#FF0000" stroke-width="2"/>
<path d="M26.3779 42.5L33.8779 37" stroke="#FF0000" stroke-width="2"/>
<path d="M36.3779 35L40.8779 32V28" stroke="#FF0000" stroke-width="2"/>
<path d="M16.3779 9L20.3779 5H23.3779" stroke="#FF0000" stroke-width="2"/>
<path d="M26 5H34" stroke="#FF0000" stroke-width="2"/>
<path d="M40.5779 16L40.8536 25" stroke="#FF0000" stroke-width="2"/>
<path d="M40.3779 14L39.2351 5H36.3779" stroke="#FF0000" stroke-width="2"/>
<path d="M41.3793 31H30.6207C28.621 31 27 32.5462 27 34.4534V44.7152C27 46.6224 28.621 48.1686 30.6207 48.1686H41.3793C43.379 48.1686 45 46.6224 45 44.7152V34.4534C45 32.5462 43.379 31 41.3793 31Z" fill="#5A8C5A"/>
<path d="M40.7069 32.073H31.2931C29.5434 32.073 28.125 33.4259 28.125 35.0948V44.0738C28.125 45.7427 29.5434 47.0956 31.2931 47.0956H40.7069C42.4566 47.0956 43.875 45.7427 43.875 44.0738V35.0948C43.875 33.4259 42.4566 32.073 40.7069 32.073Z" fill="#8BAE8B"/>
<path d="M43.7143 40.8873H28.2857L28.9286 47.0668H43.0714L43.7143 40.8873Z" fill="#5A8C5A" stroke="#5A8C5A"/>
<path d="M31.5 38.5938L34.7143 43.8765L40.5 35.2922" stroke="white" stroke-width="2"/>
</svg>
