<svg width="50" height="50" viewBox="0 0 50 50" fill="none" xmlns="http://www.w3.org/2000/svg">
<g clip-path="url(#clip0_24_264)">
<path d="M13.8779 11L8.37794 17V20" stroke="#FF0000" stroke-width="2"/>
<path d="M8.37794 23L8.91329 33.2656" stroke="#FF0000" stroke-width="2"/>
<path d="M9.37794 37L9.87794 43.5L12.3779 44" stroke="#FF0000" stroke-width="2"/>
<path d="M15.3779 44.7L21.3779 45.7L23.8779 44.2" stroke="#FF0000" stroke-width="2"/>
<path d="M26.3779 42.5L33.8779 37" stroke="#FF0000" stroke-width="2"/>
<path d="M36.3779 35L40.8779 32V28" stroke="#FF0000" stroke-width="2"/>
<path d="M16.3779 9L20.3779 5H23.3779" stroke="#FF0000" stroke-width="2"/>
<path d="M26 5H34" stroke="#FF0000" stroke-width="2"/>
<path d="M40.5779 16L40.8536 25" stroke="#FF0000" stroke-width="2"/>
<path d="M40.3779 14L39.2351 5H36.3779" stroke="#FF0000" stroke-width="2"/>
<path d="M35.535 31.0925C35.535 31.0925 31.0992 30.7821 32.464 35.9939H28.648C28.648 35.9939 28.8972 30.1001 35.535 31.0925Z" fill="url(#paint0_linear_24_264)" stroke="url(#paint1_linear_24_264)" stroke-width="0.544"/>
<path d="M28.8516 36.2404C27.0285 27.6024 36.2517 24.3579 44.2908 30.6999L46.6608 28.0981L46.6133 36.6019L39.1876 36.5946L41.6589 33.8157C36.0052 29.5305 28.7639 29.8518 28.8516 36.2404Z" fill="url(#paint2_linear_24_264)" stroke="url(#paint3_linear_24_264)" stroke-width="0.544"/>
<path d="M39.6158 43.2297C39.6158 43.2297 44.0526 43.5401 42.6868 38.3283H46.5467C46.5467 39.0741 46.2545 44.2212 39.6158 43.2297Z" fill="url(#paint4_linear_24_264)" stroke="url(#paint5_linear_24_264)" stroke-width="0.544"/>
<path d="M46.5311 38.1119C48.3533 46.7499 39.131 49.9945 31.0919 43.6524L28.784 46.3464L28.8004 37.8125L36.0718 37.7577L33.7238 40.5366C39.3775 44.8219 46.6188 44.5005 46.5311 38.1119Z" fill="url(#paint6_linear_24_264)" stroke="url(#paint7_linear_24_264)" stroke-width="0.544"/>
<path opacity="0.272" d="M29 46L29.0289 38.1959L35 38L32.9745 40.7162L34.7589 41.9609C33.3752 43.142 32.6596 43.2317 32.1978 44.5758L30.8981 43.4691L29 46Z" fill="#E6E6E6"/>
<path opacity="0.5" d="M46.2535 41.0907C45.3097 46.877 37.9327 48.6566 31.0272 42.9312L29.2758 45.0184L29.3254 38.3148L34.9044 38.2824L32.9975 40.5674C37.3738 44.3618 44.035 45.5227 46.2535 41.0907Z" stroke="url(#paint8_linear_24_264)" stroke-width="0.543633"/>
<path opacity="0.5" d="M29 33.2942C29.9354 27.6251 37.2865 25.7745 44.2206 31.4141L45.9873 29.491L46 35.9982L40.2257 36L42.2684 33.7003C37.6248 29.9821 31.2607 29.1341 29 33.2942Z" stroke="url(#paint9_linear_24_264)" stroke-width="0.544"/>
<path opacity="0.272" d="M29 34C30.7239 29.2278 36.8871 31.1918 38.6833 31.9435C40.6859 32.0402 41.4049 30.6478 43 30.5722C36.2607 26.0968 29.18 27.6009 29 34Z" fill="white"/>
</g>
<defs>
<linearGradient id="paint0_linear_24_264" x1="32.453" y1="31.055" x2="33.4171" y2="35.2755" gradientUnits="userSpaceOnUse">
<stop stop-color="#264976"/>
<stop offset="0.333" stop-color="#3F689D"/>
<stop offset="1" stop-color="#5689CA" stop-opacity="0"/>
</linearGradient>
<linearGradient id="paint1_linear_24_264" x1="30.6935" y1="33.925" x2="30.7247" y2="35.68" gradientUnits="userSpaceOnUse">
<stop stop-color="#3465A4"/>
<stop offset="1" stop-color="#3465A4" stop-opacity="0"/>
</linearGradient>
<linearGradient id="paint2_linear_24_264" x1="27.059" y1="27.7465" x2="44.1833" y2="34.6038" gradientUnits="userSpaceOnUse">
<stop stop-color="#8CB0D8"/>
<stop offset="1" stop-color="#4580BF"/>
</linearGradient>
<linearGradient id="paint3_linear_24_264" x1="29.3304" y1="34.1986" x2="28.3704" y2="36.1831" gradientUnits="userSpaceOnUse">
<stop stop-color="#3465A4"/>
<stop offset="1" stop-color="#3465A4"/>
</linearGradient>
<linearGradient id="paint4_linear_24_264" x1="41.7365" y1="41.895" x2="43.9585" y2="38.9637" gradientUnits="userSpaceOnUse">
<stop stop-color="#C4D7EB"/>
<stop offset="1" stop-color="#C4D7EB" stop-opacity="0"/>
</linearGradient>
<linearGradient id="paint5_linear_24_264" x1="43.755" y1="42.2465" x2="43.9585" y2="38.9637" gradientUnits="userSpaceOnUse">
<stop stop-color="#2B5B95"/>
<stop offset="1" stop-color="#5C8FCE" stop-opacity="0"/>
</linearGradient>
<linearGradient id="paint6_linear_24_264" x1="32.7903" y1="39.586" x2="43.4733" y2="47.1436" gradientUnits="userSpaceOnUse">
<stop stop-color="#4580BF"/>
<stop offset="1" stop-color="#376DA5"/>
</linearGradient>
<linearGradient id="paint7_linear_24_264" x1="46.0523" y1="40.1538" x2="47.0123" y2="38.1692" gradientUnits="userSpaceOnUse">
<stop stop-color="#3465A4"/>
<stop offset="1" stop-color="#3465A4"/>
</linearGradient>
<linearGradient id="paint8_linear_24_264" x1="30.6214" y1="36.4895" x2="42.456" y2="46.4886" gradientUnits="userSpaceOnUse">
<stop stop-color="white"/>
<stop offset="1" stop-color="white" stop-opacity="0"/>
</linearGradient>
<linearGradient id="paint9_linear_24_264" x1="44.6849" y1="37.7255" x2="33.0684" y2="27.7991" gradientUnits="userSpaceOnUse">
<stop stop-color="white"/>
<stop offset="1" stop-color="white" stop-opacity="0"/>
</linearGradient>
<clipPath id="clip0_24_264">
<rect width="50" height="50" fill="white"/>
</clipPath>
</defs>
</svg>
