<svg width="50" height="50" viewBox="0 0 50 50" fill="none" xmlns="http://www.w3.org/2000/svg">
<g clip-path="url(#clip0_24_297)">
<path d="M13.8779 11L8.37794 17V20" stroke="#FF0000" stroke-width="2"/>
<path d="M8.37794 23L8.91329 33.2656" stroke="#FF0000" stroke-width="2"/>
<path d="M9.37794 37L9.87794 43.5L12.3779 44" stroke="#FF0000" stroke-width="2"/>
<path d="M15.3779 44.7L21.3779 45.7L23.8779 44.2" stroke="#FF0000" stroke-width="2"/>
<path d="M26.3779 42.5L33.8779 37" stroke="#FF0000" stroke-width="2"/>
<path d="M36.3779 35L40.8779 32V28" stroke="#FF0000" stroke-width="2"/>
<path d="M16.3779 9L20.3779 5H23.3779" stroke="#FF0000" stroke-width="2"/>
<path d="M26 5H34" stroke="#FF0000" stroke-width="2"/>
<path d="M40.5779 16L40.8536 25" stroke="#FF0000" stroke-width="2"/>
<path d="M40.3779 14L39.2351 5H36.3779" stroke="#FF0000" stroke-width="2"/>
<path fill-rule="evenodd" clip-rule="evenodd" d="M33.101 50.077L38.071 43.867L33.101 37.657V41.797L30.401 41.8191C27.181 41.7787 27.351 37.7391 30.62 37.6591V35.9991C27.8 35.9991 24 37.0891 24 42.2091C24 43.9491 25.43 45.9391 28.97 45.9391H33.11L33.101 50.077Z" fill="#8CBE8C" stroke="#639563" stroke-width="0.6" stroke-linejoin="round"/>
<path fill-rule="evenodd" clip-rule="evenodd" d="M33.411 49.177L33.406 45.987C33.3984 45.706 33.227 45.611 33.061 45.617L29.151 45.6119C25.611 45.6073 24.301 43.8019 24.301 42.1419C24.3123 39.7319 25.134 38.4119 26.321 37.4819C25.59 38.4129 24.941 39.5619 24.941 41.3619C24.941 43.9019 26.091 45.0919 29.911 45.0919H33.511C33.9 45.0919 34.046 45.3309 34.046 45.6189V48.3989L33.411 49.177Z" fill="#AFD5C1"/>
<path fill-rule="evenodd" clip-rule="evenodd" d="M38.001 27L33.031 33.21L38.001 39.42V35.28L40.701 35.2579C43.921 35.2983 43.751 39.3379 40.482 39.4179V41.0779C43.302 41.0779 47.102 39.9879 47.102 34.8679C47.102 33.1279 45.672 31.1379 42.132 31.1379H37.992L38.001 27Z" fill="#8CBE8C" stroke="#639563" stroke-width="0.6" stroke-linejoin="round"/>
<path fill-rule="evenodd" clip-rule="evenodd" d="M37.701 27.887L37.706 31.077C37.7136 31.358 37.885 31.453 38.051 31.447L41.961 31.4521C45.501 31.4567 46.811 33.2621 46.811 34.9221C46.7997 37.3321 45.978 38.6521 44.791 39.5821C45.522 38.6511 46.171 37.5021 46.171 35.7021C46.171 33.1621 45.021 31.9721 41.201 31.9721H37.601C37.212 31.9721 37.066 31.7331 37.066 31.4451V28.6651L37.701 27.887Z" fill="#AFD5C1"/>
</g>
<defs>
<clipPath id="clip0_24_297">
<rect width="50" height="50" fill="white"/>
</clipPath>
</defs>
</svg>
