<svg width="50" height="50" viewBox="0 0 50 50" fill="none" xmlns="http://www.w3.org/2000/svg">
<rect x="3.5" y="17.5" width="43" height="26" fill="#51B437" stroke="black"/>
<path d="M45.4399 33H36.5601C35.1462 33 34 34.1462 34 35.5601V44.4399C34 45.8538 35.1462 47 36.5601 47H45.4399C46.8538 47 48 45.8538 48 44.4399V35.5601C48 34.1462 46.8538 33 45.4399 33Z" fill="#C4A000"/>
<path d="M40.3636 34.2727V36.8977C39.6793 37.0391 39.0595 37.3856 38.6136 37.892L36.3466 36.5795L35.7102 37.6932L37.9773 39.0057C37.8728 39.3206 37.8182 39.6502 37.8182 40C37.8182 40.3498 37.8728 40.6794 37.9773 40.9943L35.7102 42.3068L36.3466 43.4205L38.6136 42.108C39.0623 42.6176 39.6734 42.9609 40.3636 43.1023V45.7273H41.6364V43.1023C42.3207 42.9609 42.9405 42.6144 43.3864 42.108L45.6534 43.4205L46.2898 42.3068L44.0227 40.9943C44.1272 40.6794 44.1818 40.3498 44.1818 40C44.1818 39.6502 44.1272 39.3206 44.0227 39.0057L46.2898 37.6932L45.6534 36.5795L43.3864 37.892C42.9377 37.3824 42.3266 37.0391 41.6364 36.8977V34.2727H40.3636ZM41 38.7273C41.7026 38.7273 42.2727 39.2975 42.2727 40C42.2727 40.7025 41.7026 41.2727 41 41.2727C40.2975 41.2727 39.7273 40.7025 39.7273 40C39.7273 39.2975 40.2975 38.7273 41 38.7273Z" fill="#FCFFFF"/>
<path opacity="0.3" fill-rule="evenodd" clip-rule="evenodd" d="M35.2727 40.6364L46.7273 40.6241C46.7273 40.6241 46.7273 40.6241 46.7273 38.0787C46.7273 34.2727 45.4546 34.2727 41 34.2727C36.5455 34.2727 35.2727 34.2727 35.2727 38.0909V40.6364Z" fill="#FCFFFF"/>
<mask id="path-5-outside-1_9_398" maskUnits="userSpaceOnUse" x="17" y="22" width="15" height="17" fill="black">
<rect fill="white" x="17" y="22" width="15" height="17"/>
<path d="M20.358 23.4545L24.6761 35.6989H24.8466L29.1648 23.4545H31.0114L25.6705 38H23.8523L18.5114 23.4545H20.358Z"/>
</mask>
<path d="M20.358 23.4545L24.6761 35.6989H24.8466L29.1648 23.4545H31.0114L25.6705 38H23.8523L18.5114 23.4545H20.358Z" fill="black"/>
<path d="M20.358 23.4545L20.8295 23.2882L20.7118 22.9545H20.358V23.4545ZM24.6761 35.6989L24.2046 35.8652L24.3223 36.1989H24.6761V35.6989ZM24.8466 35.6989V36.1989H25.2004L25.3181 35.8652L24.8466 35.6989ZM29.1648 23.4545V22.9545H28.8109L28.6932 23.2882L29.1648 23.4545ZM31.0114 23.4545L31.4807 23.6269L31.7276 22.9545H31.0114V23.4545ZM25.6705 38V38.5H26.0195L26.1398 38.1723L25.6705 38ZM23.8523 38L23.3829 38.1723L23.5032 38.5H23.8523V38ZM18.5114 23.4545V22.9545H17.7951L18.042 23.6269L18.5114 23.4545ZM19.8864 23.6208L24.2046 35.8652L25.1477 35.5326L20.8295 23.2882L19.8864 23.6208ZM24.6761 36.1989H24.8466V35.1989H24.6761V36.1989ZM25.3181 35.8652L29.6363 23.6208L28.6932 23.2882L24.3751 35.5326L25.3181 35.8652ZM29.1648 23.9545H31.0114V22.9545H29.1648V23.9545ZM30.542 23.2822L25.2011 37.8277L26.1398 38.1723L31.4807 23.6269L30.542 23.2822ZM25.6705 37.5H23.8523V38.5H25.6705V37.5ZM24.3216 37.8277L18.9807 23.2822L18.042 23.6269L23.3829 38.1723L24.3216 37.8277ZM18.5114 23.9545H20.358V22.9545H18.5114V23.9545Z" fill="black" mask="url(#path-5-outside-1_9_398)"/>
</svg>
