<svg width="50" height="50" viewBox="0 0 50 50" fill="none" xmlns="http://www.w3.org/2000/svg">
<path d="M14.5 11L9 17V20" stroke="#FF0000" stroke-width="2"/>
<path d="M9 23L9.53535 33.2656" stroke="#FF0000" stroke-width="2"/>
<path d="M10 37L10.5 43.5L13 44" stroke="#FF0000" stroke-width="2"/>
<path d="M16 44.7L22 45.7L24.5 44.2" stroke="#FF0000" stroke-width="2"/>
<path d="M27 42.5L34.5 37" stroke="#FF0000" stroke-width="2"/>
<path d="M37 35L41.5 32V28" stroke="#FF0000" stroke-width="2"/>
<path d="M17 9L21 5H24" stroke="#FF0000" stroke-width="2"/>
<path d="M26.5 5H34.5" stroke="#FF0000" stroke-width="2"/>
<path d="M41.2 16L41.4757 25" stroke="#FF0000" stroke-width="2"/>
<path d="M41 14L39.8571 5H37" stroke="#FF0000" stroke-width="2"/>
<path d="M44.8913 31H34.1087C32.3918 31 31 32.3918 31 34.1087V44.8913C31 46.6082 32.3918 48 34.1087 48H44.8913C46.6082 48 48 46.6082 48 44.8913V34.1087C48 32.3918 46.6082 31 44.8913 31Z" fill="#C4A000"/>
<path d="M38.7273 32.5455V35.733C37.8963 35.9046 37.1437 36.3253 36.6023 36.9403L33.8494 35.3466L33.0767 36.6989L35.8295 38.2926C35.7027 38.675 35.6364 39.0752 35.6364 39.5C35.6364 39.9248 35.7027 40.325 35.8295 40.7074L33.0767 42.3011L33.8494 43.6534L36.6023 42.0597C37.1471 42.6785 37.8891 43.0954 38.7273 43.267V46.4545H40.2727V43.267C41.1037 43.0954 41.8563 42.6747 42.3977 42.0597L45.1506 43.6534L45.9233 42.3011L43.1705 40.7074C43.2973 40.325 43.3636 39.9248 43.3636 39.5C43.3636 39.0752 43.2973 38.675 43.1705 38.2926L45.9233 36.6989L45.1506 35.3466L42.3977 36.9403C41.853 36.3215 41.1109 35.9046 40.2727 35.733V32.5455H38.7273ZM39.5 37.9545C40.3531 37.9545 41.0455 38.6469 41.0455 39.5C41.0455 40.3531 40.3531 41.0455 39.5 41.0455C38.6469 41.0455 37.9545 40.3531 37.9545 39.5C37.9545 38.6469 38.6469 37.9545 39.5 37.9545Z" fill="#FCFFFF"/>
<path opacity="0.3" fill-rule="evenodd" clip-rule="evenodd" d="M32.5455 40.2727L46.4545 40.2579C46.4545 40.2579 46.4545 40.2579 46.4545 37.167C46.4545 32.5455 44.9091 32.5455 39.5 32.5455C34.0909 32.5455 32.5455 32.5455 32.5455 37.1818V40.2727Z" fill="#FCFFFF"/>
</svg>
