<svg width="50" height="50" viewBox="0 0 50 50" fill="none" xmlns="http://www.w3.org/2000/svg">
<rect x="1.5" y="17.5" width="43" height="26" fill="#51B437" stroke="black"/>
<mask id="path-2-outside-1_9_456" maskUnits="userSpaceOnUse" x="15" y="22" width="15" height="17" fill="black">
<rect fill="white" x="15" y="22" width="15" height="17"/>
<path d="M18.358 23.4545L22.6761 35.6989H22.8466L27.1648 23.4545H29.0114L23.6705 38H21.8523L16.5114 23.4545H18.358Z"/>
</mask>
<path d="M18.358 23.4545L22.6761 35.6989H22.8466L27.1648 23.4545H29.0114L23.6705 38H21.8523L16.5114 23.4545H18.358Z" fill="black"/>
<path d="M18.358 23.4545L18.8295 23.2882L18.7118 22.9545H18.358V23.4545ZM22.6761 35.6989L22.2046 35.8652L22.3223 36.1989H22.6761V35.6989ZM22.8466 35.6989V36.1989H23.2004L23.3181 35.8652L22.8466 35.6989ZM27.1648 23.4545V22.9545H26.8109L26.6932 23.2882L27.1648 23.4545ZM29.0114 23.4545L29.4807 23.6269L29.7276 22.9545H29.0114V23.4545ZM23.6705 38V38.5H24.0195L24.1398 38.1723L23.6705 38ZM21.8523 38L21.3829 38.1723L21.5032 38.5H21.8523V38ZM16.5114 23.4545V22.9545H15.7951L16.042 23.6269L16.5114 23.4545ZM17.8864 23.6208L22.2046 35.8652L23.1477 35.5326L18.8295 23.2882L17.8864 23.6208ZM22.6761 36.1989H22.8466V35.1989H22.6761V36.1989ZM23.3181 35.8652L27.6363 23.6208L26.6932 23.2882L22.3751 35.5326L23.3181 35.8652ZM27.1648 23.9545H29.0114V22.9545H27.1648V23.9545ZM28.542 23.2822L23.2011 37.8277L24.1398 38.1723L29.4807 23.6269L28.542 23.2822ZM23.6705 37.5H21.8523V38.5H23.6705V37.5ZM22.3216 37.8277L16.9807 23.2822L16.042 23.6269L21.3829 38.1723L22.3216 37.8277ZM16.5114 23.9545H18.358V22.9545H16.5114V23.9545Z" fill="black" mask="url(#path-2-outside-1_9_456)"/>
<path d="M36.2197 42.4395C40.2071 42.4395 43.4395 39.2071 43.4395 35.2197C43.4395 31.2324 40.2071 28 36.2197 28C32.2324 28 29 31.2324 29 35.2197C29 39.2071 32.2324 42.4395 36.2197 42.4395Z" fill="#6D97C4" stroke="#445E75" stroke-width="0.572657" stroke-miterlimit="10"/>
<path opacity="0.3" d="M30.3723 36.5283C30.5566 34.4088 30.9705 33.1372 32.2866 31.8211C33.708 30.3997 35.0244 29.7401 37.5117 29.1742C38.7337 28.8962 36.617 27.9748 33.6879 29.0707C32.1144 29.6593 30.5173 31.1955 29.9569 33.4341C29.2779 36.1444 30.288 37.4989 30.3723 36.5283Z" fill="white"/>
<path d="M37.9505 38.2586L37.7718 38.0804C37.6089 37.9178 37.297 37.95 37.1681 38.1428C37.0873 38.2639 36.7137 38.6506 36.4783 38.8324C36.5075 38.7118 36.5634 38.5275 36.6686 38.2284L37.6127 35.5483C37.8345 34.9136 37.9684 34.5304 37.9684 34.2037C37.9684 33.6866 37.5873 33.3522 36.9979 33.3522C35.5093 33.3522 34.3442 34.6966 33.9129 35.2741C33.9074 35.2814 33.9024 35.2885 33.8978 35.2948C33.8236 35.3791 33.7941 35.4916 33.8173 35.6069C33.8352 35.6961 33.884 35.7824 33.9588 35.8572L34.0927 35.9909C34.1728 36.0709 34.2767 36.115 34.3857 36.115C34.467 36.115 34.5889 36.0895 34.7087 35.9685L34.7309 35.9425C34.8862 35.7356 35.1765 35.4227 35.3887 35.2301C35.3522 35.3539 35.3006 35.506 35.2399 35.681L34.5836 37.594C34.1161 38.9457 33.9411 39.4515 33.9411 39.7332C33.9411 40.1015 34.1765 40.4947 34.8371 40.4947C36.8902 40.4947 37.9022 38.9696 38.0132 38.7921C38.1263 38.6028 38.1046 38.4137 37.9505 38.2586Z" fill="white" stroke="#34497D" stroke-width="0.572657" stroke-miterlimit="10"/>
<path d="M37.1167 30.2806C36.4566 30.2806 35.8779 30.8524 35.8779 31.5044C35.8779 32.2478 36.3758 32.7282 37.1464 32.7282C37.903 32.7282 38.4895 32.0303 38.4895 31.4299C38.4898 30.8999 38.1303 30.2806 37.1167 30.2806Z" fill="white" stroke="#34497D" stroke-width="0.572657" stroke-miterlimit="10"/>
<path fill-rule="evenodd" clip-rule="evenodd" d="M48.5796 41.9003L38.7713 36.5329L42.9829 46.9934L44.6598 44.2776L47.9753 47.9026L49.231 46.6788L45.8413 43.0885L48.5796 41.9003Z" fill="white" stroke="black" stroke-width="1.2" stroke-linecap="round" stroke-linejoin="round"/>
</svg>
