<?xml version="1.0" encoding="UTF-8" standalone="no"?>
<!-- Created with Inkscape (http://www.inkscape.org/) -->

<svg
   width="24"
   height="24"
   viewBox="0 0 24 24"
   version="1.1"
   id="svg1"
   xmlns="http://www.w3.org/2000/svg"
   xmlns:svg="http://www.w3.org/2000/svg">
  <defs
     id="defs1" />
  <g
     id="layer1">
    <path
       style="fill:none;stroke:#ff0000;stroke-width:1;stroke-dasharray:6, 2;stroke-dashoffset:0;stroke-opacity:1"
       d="M 2.5,9.0273139 9.0273139,2.5 H 21.5 v 9.66008 L 12.16008,21.5 H 5.9769886 L 2.5,18.023011 Z"
       id="path7" />
    <g
       transform="translate(33)"
       id="g6">
      <g
         id="g7"
         transform="matrix(0.90909091,0,0,0.90909091,-0.81818182,2.1818182)">
        <rect
           fill="#c4a000"
           height="11"
           rx="2.0114901"
           width="11"
           x="-20"
           y="13"
           id="rect3" />
        <g
           fill="#fcffff"
           id="g5">
          <path
             d="m -15,14 v 2.0625 c -0.537663,0.111041 -1.024662,0.383291 -1.375,0.78125 l -1.78125,-1.03125 -0.5,0.875 1.78125,1.03125 C -16.957063,17.966182 -17,18.225145 -17,18.5 c 0,0.274855 0.04294,0.533818 0.125,0.78125 l -1.78125,1.03125 0.5,0.875 1.78125,-1.03125 c 0.352503,0.40042 0.832682,0.670182 1.375,0.78125 V 23 h 1 v -2.0625 c 0.537663,-0.111041 1.024662,-0.383291 1.375,-0.78125 l 1.78125,1.03125 0.5,-0.875 -1.78125,-1.03125 C -12.042937,19.033818 -12,18.774855 -12,18.5 c 0,-0.274855 -0.04294,-0.533818 -0.125,-0.78125 l 1.78125,-1.03125 -0.5,-0.875 -1.78125,1.03125 C -12.977503,16.44333 -13.457682,16.173568 -14,16.0625 V 14 Z m 0.5,3.5 c 0.552,0 1,0.448 1,1 0,0.552 -0.448,1 -1,1 -0.552,0 -1,-0.448 -1,-1 0,-0.552 0.448,-1 1,-1 z"
             id="path4" />
          <path
             d="m -19,19 9,-0.0096 c 0,0 0,0 0,-2 C -10,14 -11,14 -14.5,14 -18,14 -19,14 -19,17 Z"
             fill-rule="evenodd"
             opacity="0.3"
             id="path5" />
        </g>
      </g>
    </g>
  </g>
</svg>
