<svg width="50" height="50" viewBox="0 0 50 50" fill="none" xmlns="http://www.w3.org/2000/svg">
<path fill-rule="evenodd" clip-rule="evenodd" d="M2 46.9992V1H24L35 11.9522V47L2 46.9992Z" fill="white" stroke="#979797" stroke-linejoin="round"/>
<path fill-rule="evenodd" clip-rule="evenodd" d="M23 1V12H35L23 1Z" fill="#F0F0F0" stroke="#979797" stroke-linejoin="round"/>
<mask id="path-3-outside-1_24_86" maskUnits="userSpaceOnUse" x="4" y="18" width="29" height="10" fill="black">
<rect fill="white" x="4" y="18" width="29" height="10"/>
<path d="M6.80615 18.9819L6.97754 19.4829C6.62891 19.5913 6.38867 19.7861 6.25684 20.0674C6.125 20.3457 6.05908 20.665 6.05908 21.0254V21.9351C6.05908 22.228 5.99902 22.4946 5.87891 22.7349C5.76172 22.9722 5.57422 23.1611 5.31641 23.3018C5.06152 23.4424 4.72607 23.5127 4.31006 23.5127V22.9766C4.64111 22.9766 4.87842 22.8828 5.02197 22.6953C5.16846 22.5078 5.2417 22.2544 5.2417 21.9351V21.0254C5.2417 20.7178 5.28857 20.4307 5.38232 20.1641C5.479 19.8945 5.64014 19.6587 5.86572 19.4565C6.09424 19.2515 6.40771 19.0933 6.80615 18.9819ZM6.97754 27.103L6.80615 27.6084C6.40771 27.4941 6.09424 27.3359 5.86572 27.1338C5.64014 26.9316 5.479 26.6958 5.38232 26.4263C5.28857 26.1597 5.2417 25.8726 5.2417 25.5649V24.6597C5.2417 24.4458 5.20947 24.2612 5.14502 24.106C5.08057 23.9507 4.97949 23.8306 4.8418 23.7456C4.70703 23.6577 4.52979 23.6138 4.31006 23.6138V23.0776C4.72607 23.0776 5.06152 23.1479 5.31641 23.2886C5.57422 23.4292 5.76172 23.6196 5.87891 23.8599C5.99902 24.0972 6.05908 24.3638 6.05908 24.6597V25.5649C6.05908 25.8052 6.08691 26.0278 6.14258 26.2329C6.20117 26.438 6.29639 26.6152 6.42822 26.7646C6.56299 26.917 6.74609 27.0298 6.97754 27.103ZM10.4185 24.1323V19.6016H11.2622V24.1323C11.2622 24.5542 11.1758 24.9102 11.0029 25.2002C10.8301 25.4902 10.5913 25.7114 10.2866 25.8638C9.98486 26.0132 9.6377 26.0879 9.24512 26.0879C8.85254 26.0879 8.50391 26.0205 8.19922 25.8857C7.89453 25.751 7.65576 25.5459 7.48291 25.2705C7.31006 24.9951 7.22363 24.6479 7.22363 24.229H8.07178C8.07178 24.4985 8.12158 24.7197 8.22119 24.8926C8.3208 25.0654 8.4585 25.1929 8.63428 25.2749C8.81299 25.3569 9.0166 25.3979 9.24512 25.3979C9.46777 25.3979 9.66699 25.3511 9.84277 25.2573C10.0215 25.1606 10.1621 25.0186 10.2646 24.8311C10.3672 24.6406 10.4185 24.4077 10.4185 24.1323ZM16.1094 24.3828C16.1094 24.2334 16.0859 24.1016 16.0391 23.9873C15.9951 23.8701 15.916 23.7646 15.8018 23.6709C15.6904 23.5771 15.5352 23.4878 15.3359 23.4028C15.1396 23.3179 14.8906 23.2314 14.5889 23.1436C14.2725 23.0498 13.9868 22.9458 13.7319 22.8315C13.4771 22.7144 13.2588 22.5811 13.0771 22.4316C12.8955 22.2822 12.7563 22.1108 12.6597 21.9175C12.563 21.7241 12.5146 21.5029 12.5146 21.2539C12.5146 21.0049 12.5659 20.7749 12.6685 20.564C12.771 20.353 12.9175 20.1699 13.1079 20.0146C13.3013 19.8564 13.5312 19.7334 13.7979 19.6455C14.0645 19.5576 14.3618 19.5137 14.6899 19.5137C15.1704 19.5137 15.5776 19.606 15.9116 19.7905C16.2485 19.9722 16.5049 20.2109 16.6807 20.5068C16.8564 20.7998 16.9443 21.1133 16.9443 21.4473H16.1006C16.1006 21.207 16.0493 20.9946 15.9468 20.8101C15.8442 20.6226 15.689 20.4761 15.481 20.3706C15.2729 20.2622 15.0093 20.208 14.6899 20.208C14.3882 20.208 14.1392 20.2534 13.9429 20.3442C13.7466 20.4351 13.6001 20.5581 13.5034 20.7134C13.4097 20.8687 13.3628 21.0459 13.3628 21.2451C13.3628 21.3799 13.3906 21.5029 13.4463 21.6143C13.5049 21.7227 13.5942 21.8237 13.7144 21.9175C13.8374 22.0112 13.9927 22.0977 14.1802 22.1768C14.3706 22.2559 14.5977 22.332 14.8613 22.4053C15.2246 22.5078 15.5381 22.6221 15.8018 22.748C16.0654 22.874 16.2822 23.0161 16.4521 23.1743C16.625 23.3296 16.7524 23.5068 16.8345 23.7061C16.9194 23.9023 16.9619 24.125 16.9619 24.374C16.9619 24.6348 16.9092 24.8706 16.8037 25.0815C16.6982 25.2925 16.5474 25.4727 16.3511 25.6221C16.1548 25.7715 15.9189 25.8872 15.6436 25.9692C15.3711 26.0483 15.0664 26.0879 14.7295 26.0879C14.4336 26.0879 14.1421 26.0469 13.855 25.9648C13.5708 25.8828 13.3115 25.7598 13.0771 25.5957C12.8457 25.4316 12.6597 25.2295 12.519 24.9893C12.3813 24.7461 12.3125 24.4648 12.3125 24.1455H13.1562C13.1562 24.3652 13.1987 24.5542 13.2837 24.7124C13.3687 24.8677 13.4844 24.9966 13.6309 25.0991C13.7803 25.2017 13.9487 25.2778 14.1362 25.3276C14.3267 25.3745 14.5244 25.3979 14.7295 25.3979C15.0254 25.3979 15.2759 25.3569 15.481 25.2749C15.686 25.1929 15.8413 25.0757 15.9468 24.9233C16.0552 24.771 16.1094 24.5908 16.1094 24.3828ZM22.9692 22.5986V23.0029C22.9692 23.4834 22.9092 23.9141 22.7891 24.2949C22.6689 24.6758 22.4961 24.9995 22.2705 25.2661C22.0449 25.5327 21.7739 25.7363 21.4575 25.877C21.144 26.0176 20.7925 26.0879 20.4028 26.0879C20.0249 26.0879 19.6777 26.0176 19.3613 25.877C19.0479 25.7363 18.7754 25.5327 18.5439 25.2661C18.3154 24.9995 18.1382 24.6758 18.0122 24.2949C17.8862 23.9141 17.8232 23.4834 17.8232 23.0029V22.5986C17.8232 22.1182 17.8848 21.689 18.0078 21.311C18.1338 20.9302 18.311 20.6064 18.5396 20.3398C18.7681 20.0703 19.0391 19.8652 19.3525 19.7246C19.6689 19.584 20.0161 19.5137 20.394 19.5137C20.7837 19.5137 21.1353 19.584 21.4487 19.7246C21.7651 19.8652 22.0361 20.0703 22.2617 20.3398C22.4902 20.6064 22.6646 20.9302 22.7847 21.311C22.9077 21.689 22.9692 22.1182 22.9692 22.5986ZM22.1299 23.0029V22.5898C22.1299 22.209 22.0903 21.8721 22.0112 21.5791C21.9351 21.2861 21.8223 21.04 21.6729 20.8408C21.5234 20.6416 21.3403 20.4907 21.1235 20.3882C20.9097 20.2856 20.6665 20.2344 20.394 20.2344C20.1304 20.2344 19.8916 20.2856 19.6777 20.3882C19.4668 20.4907 19.2852 20.6416 19.1328 20.8408C18.9834 21.04 18.8677 21.2861 18.7856 21.5791C18.7036 21.8721 18.6626 22.209 18.6626 22.5898V23.0029C18.6626 23.3867 18.7036 23.7266 18.7856 24.0225C18.8677 24.3154 18.9849 24.563 19.1372 24.7651C19.2925 24.9644 19.4756 25.1152 19.6865 25.2178C19.9004 25.3203 20.1392 25.3716 20.4028 25.3716C20.6782 25.3716 20.9229 25.3203 21.1367 25.2178C21.3506 25.1152 21.5308 24.9644 21.6772 24.7651C21.8267 24.563 21.9395 24.3154 22.0156 24.0225C22.0918 23.7266 22.1299 23.3867 22.1299 23.0029ZM29.1611 19.6016V26H28.3086L25.0874 21.0649V26H24.2393V19.6016H25.0874L28.3218 24.5498V19.6016H29.1611ZM30.0093 19.4829L30.1807 18.9819C30.582 19.0933 30.8955 19.2515 31.1211 19.4565C31.3496 19.6587 31.5107 19.8945 31.6045 20.1641C31.6982 20.4307 31.7451 20.7178 31.7451 21.0254V21.9351C31.7451 22.146 31.7773 22.3306 31.8418 22.4888C31.9062 22.644 32.0059 22.7642 32.1406 22.8491C32.2783 22.9341 32.457 22.9766 32.6768 22.9766V23.4731C32.2637 23.4731 31.9282 23.4072 31.6704 23.2754C31.4126 23.1406 31.2236 22.9575 31.1035 22.7261C30.9863 22.4917 30.9277 22.228 30.9277 21.9351V21.0254C30.9277 20.7852 30.8999 20.5625 30.8442 20.3574C30.7886 20.1494 30.6934 19.9707 30.5586 19.8213C30.4268 19.6689 30.2437 19.5562 30.0093 19.4829ZM30.1807 27.6084L30.0093 27.103C30.2407 27.0298 30.4224 26.917 30.5542 26.7646C30.689 26.6152 30.7842 26.438 30.8398 26.2329C30.8984 26.0278 30.9277 25.8052 30.9277 25.5649V24.6597C30.9277 24.3638 30.9863 24.1001 31.1035 23.8687C31.2236 23.6372 31.4126 23.4556 31.6704 23.3237C31.9282 23.189 32.2637 23.1216 32.6768 23.1216V23.6138C32.3486 23.6138 32.1113 23.709 31.9648 23.8994C31.8184 24.0869 31.7451 24.3403 31.7451 24.6597V25.5649C31.7451 25.8726 31.6982 26.1597 31.6045 26.4263C31.5107 26.6958 31.3496 26.9316 31.1211 27.1338C30.8955 27.3359 30.582 27.4941 30.1807 27.6084Z"/>
</mask>
<path d="M6.80615 18.9819L6.97754 19.4829C6.62891 19.5913 6.38867 19.7861 6.25684 20.0674C6.125 20.3457 6.05908 20.665 6.05908 21.0254V21.9351C6.05908 22.228 5.99902 22.4946 5.87891 22.7349C5.76172 22.9722 5.57422 23.1611 5.31641 23.3018C5.06152 23.4424 4.72607 23.5127 4.31006 23.5127V22.9766C4.64111 22.9766 4.87842 22.8828 5.02197 22.6953C5.16846 22.5078 5.2417 22.2544 5.2417 21.9351V21.0254C5.2417 20.7178 5.28857 20.4307 5.38232 20.1641C5.479 19.8945 5.64014 19.6587 5.86572 19.4565C6.09424 19.2515 6.40771 19.0933 6.80615 18.9819ZM6.97754 27.103L6.80615 27.6084C6.40771 27.4941 6.09424 27.3359 5.86572 27.1338C5.64014 26.9316 5.479 26.6958 5.38232 26.4263C5.28857 26.1597 5.2417 25.8726 5.2417 25.5649V24.6597C5.2417 24.4458 5.20947 24.2612 5.14502 24.106C5.08057 23.9507 4.97949 23.8306 4.8418 23.7456C4.70703 23.6577 4.52979 23.6138 4.31006 23.6138V23.0776C4.72607 23.0776 5.06152 23.1479 5.31641 23.2886C5.57422 23.4292 5.76172 23.6196 5.87891 23.8599C5.99902 24.0972 6.05908 24.3638 6.05908 24.6597V25.5649C6.05908 25.8052 6.08691 26.0278 6.14258 26.2329C6.20117 26.438 6.29639 26.6152 6.42822 26.7646C6.56299 26.917 6.74609 27.0298 6.97754 27.103ZM10.4185 24.1323V19.6016H11.2622V24.1323C11.2622 24.5542 11.1758 24.9102 11.0029 25.2002C10.8301 25.4902 10.5913 25.7114 10.2866 25.8638C9.98486 26.0132 9.6377 26.0879 9.24512 26.0879C8.85254 26.0879 8.50391 26.0205 8.19922 25.8857C7.89453 25.751 7.65576 25.5459 7.48291 25.2705C7.31006 24.9951 7.22363 24.6479 7.22363 24.229H8.07178C8.07178 24.4985 8.12158 24.7197 8.22119 24.8926C8.3208 25.0654 8.4585 25.1929 8.63428 25.2749C8.81299 25.3569 9.0166 25.3979 9.24512 25.3979C9.46777 25.3979 9.66699 25.3511 9.84277 25.2573C10.0215 25.1606 10.1621 25.0186 10.2646 24.8311C10.3672 24.6406 10.4185 24.4077 10.4185 24.1323ZM16.1094 24.3828C16.1094 24.2334 16.0859 24.1016 16.0391 23.9873C15.9951 23.8701 15.916 23.7646 15.8018 23.6709C15.6904 23.5771 15.5352 23.4878 15.3359 23.4028C15.1396 23.3179 14.8906 23.2314 14.5889 23.1436C14.2725 23.0498 13.9868 22.9458 13.7319 22.8315C13.4771 22.7144 13.2588 22.5811 13.0771 22.4316C12.8955 22.2822 12.7563 22.1108 12.6597 21.9175C12.563 21.7241 12.5146 21.5029 12.5146 21.2539C12.5146 21.0049 12.5659 20.7749 12.6685 20.564C12.771 20.353 12.9175 20.1699 13.1079 20.0146C13.3013 19.8564 13.5312 19.7334 13.7979 19.6455C14.0645 19.5576 14.3618 19.5137 14.6899 19.5137C15.1704 19.5137 15.5776 19.606 15.9116 19.7905C16.2485 19.9722 16.5049 20.2109 16.6807 20.5068C16.8564 20.7998 16.9443 21.1133 16.9443 21.4473H16.1006C16.1006 21.207 16.0493 20.9946 15.9468 20.8101C15.8442 20.6226 15.689 20.4761 15.481 20.3706C15.2729 20.2622 15.0093 20.208 14.6899 20.208C14.3882 20.208 14.1392 20.2534 13.9429 20.3442C13.7466 20.4351 13.6001 20.5581 13.5034 20.7134C13.4097 20.8687 13.3628 21.0459 13.3628 21.2451C13.3628 21.3799 13.3906 21.5029 13.4463 21.6143C13.5049 21.7227 13.5942 21.8237 13.7144 21.9175C13.8374 22.0112 13.9927 22.0977 14.1802 22.1768C14.3706 22.2559 14.5977 22.332 14.8613 22.4053C15.2246 22.5078 15.5381 22.6221 15.8018 22.748C16.0654 22.874 16.2822 23.0161 16.4521 23.1743C16.625 23.3296 16.7524 23.5068 16.8345 23.7061C16.9194 23.9023 16.9619 24.125 16.9619 24.374C16.9619 24.6348 16.9092 24.8706 16.8037 25.0815C16.6982 25.2925 16.5474 25.4727 16.3511 25.6221C16.1548 25.7715 15.9189 25.8872 15.6436 25.9692C15.3711 26.0483 15.0664 26.0879 14.7295 26.0879C14.4336 26.0879 14.1421 26.0469 13.855 25.9648C13.5708 25.8828 13.3115 25.7598 13.0771 25.5957C12.8457 25.4316 12.6597 25.2295 12.519 24.9893C12.3813 24.7461 12.3125 24.4648 12.3125 24.1455H13.1562C13.1562 24.3652 13.1987 24.5542 13.2837 24.7124C13.3687 24.8677 13.4844 24.9966 13.6309 25.0991C13.7803 25.2017 13.9487 25.2778 14.1362 25.3276C14.3267 25.3745 14.5244 25.3979 14.7295 25.3979C15.0254 25.3979 15.2759 25.3569 15.481 25.2749C15.686 25.1929 15.8413 25.0757 15.9468 24.9233C16.0552 24.771 16.1094 24.5908 16.1094 24.3828ZM22.9692 22.5986V23.0029C22.9692 23.4834 22.9092 23.9141 22.7891 24.2949C22.6689 24.6758 22.4961 24.9995 22.2705 25.2661C22.0449 25.5327 21.7739 25.7363 21.4575 25.877C21.144 26.0176 20.7925 26.0879 20.4028 26.0879C20.0249 26.0879 19.6777 26.0176 19.3613 25.877C19.0479 25.7363 18.7754 25.5327 18.5439 25.2661C18.3154 24.9995 18.1382 24.6758 18.0122 24.2949C17.8862 23.9141 17.8232 23.4834 17.8232 23.0029V22.5986C17.8232 22.1182 17.8848 21.689 18.0078 21.311C18.1338 20.9302 18.311 20.6064 18.5396 20.3398C18.7681 20.0703 19.0391 19.8652 19.3525 19.7246C19.6689 19.584 20.0161 19.5137 20.394 19.5137C20.7837 19.5137 21.1353 19.584 21.4487 19.7246C21.7651 19.8652 22.0361 20.0703 22.2617 20.3398C22.4902 20.6064 22.6646 20.9302 22.7847 21.311C22.9077 21.689 22.9692 22.1182 22.9692 22.5986ZM22.1299 23.0029V22.5898C22.1299 22.209 22.0903 21.8721 22.0112 21.5791C21.9351 21.2861 21.8223 21.04 21.6729 20.8408C21.5234 20.6416 21.3403 20.4907 21.1235 20.3882C20.9097 20.2856 20.6665 20.2344 20.394 20.2344C20.1304 20.2344 19.8916 20.2856 19.6777 20.3882C19.4668 20.4907 19.2852 20.6416 19.1328 20.8408C18.9834 21.04 18.8677 21.2861 18.7856 21.5791C18.7036 21.8721 18.6626 22.209 18.6626 22.5898V23.0029C18.6626 23.3867 18.7036 23.7266 18.7856 24.0225C18.8677 24.3154 18.9849 24.563 19.1372 24.7651C19.2925 24.9644 19.4756 25.1152 19.6865 25.2178C19.9004 25.3203 20.1392 25.3716 20.4028 25.3716C20.6782 25.3716 20.9229 25.3203 21.1367 25.2178C21.3506 25.1152 21.5308 24.9644 21.6772 24.7651C21.8267 24.563 21.9395 24.3154 22.0156 24.0225C22.0918 23.7266 22.1299 23.3867 22.1299 23.0029ZM29.1611 19.6016V26H28.3086L25.0874 21.0649V26H24.2393V19.6016H25.0874L28.3218 24.5498V19.6016H29.1611ZM30.0093 19.4829L30.1807 18.9819C30.582 19.0933 30.8955 19.2515 31.1211 19.4565C31.3496 19.6587 31.5107 19.8945 31.6045 20.1641C31.6982 20.4307 31.7451 20.7178 31.7451 21.0254V21.9351C31.7451 22.146 31.7773 22.3306 31.8418 22.4888C31.9062 22.644 32.0059 22.7642 32.1406 22.8491C32.2783 22.9341 32.457 22.9766 32.6768 22.9766V23.4731C32.2637 23.4731 31.9282 23.4072 31.6704 23.2754C31.4126 23.1406 31.2236 22.9575 31.1035 22.7261C30.9863 22.4917 30.9277 22.228 30.9277 21.9351V21.0254C30.9277 20.7852 30.8999 20.5625 30.8442 20.3574C30.7886 20.1494 30.6934 19.9707 30.5586 19.8213C30.4268 19.6689 30.2437 19.5562 30.0093 19.4829ZM30.1807 27.6084L30.0093 27.103C30.2407 27.0298 30.4224 26.917 30.5542 26.7646C30.689 26.6152 30.7842 26.438 30.8398 26.2329C30.8984 26.0278 30.9277 25.8052 30.9277 25.5649V24.6597C30.9277 24.3638 30.9863 24.1001 31.1035 23.8687C31.2236 23.6372 31.4126 23.4556 31.6704 23.3237C31.9282 23.189 32.2637 23.1216 32.6768 23.1216V23.6138C32.3486 23.6138 32.1113 23.709 31.9648 23.8994C31.8184 24.0869 31.7451 24.3403 31.7451 24.6597V25.5649C31.7451 25.8726 31.6982 26.1597 31.6045 26.4263C31.5107 26.6958 31.3496 26.9316 31.1211 27.1338C30.8955 27.3359 30.582 27.4941 30.1807 27.6084Z" fill="black"/>
<path d="M6.80615 18.9819L6.90077 18.9496L6.8702 18.8602L6.77924 18.8856L6.80615 18.9819ZM6.97754 19.4829L7.00723 19.5784L7.10545 19.5479L7.07216 19.4505L6.97754 19.4829ZM6.25684 20.0674L6.34721 20.1102L6.34738 20.1098L6.25684 20.0674ZM5.87891 22.7349L5.78946 22.6901L5.78924 22.6906L5.87891 22.7349ZM5.31641 23.3018L5.26852 23.214L5.2681 23.2142L5.31641 23.3018ZM4.31006 23.5127H4.21006V23.6127H4.31006V23.5127ZM4.31006 22.9766V22.8766H4.21006V22.9766H4.31006ZM5.02197 22.6953L4.94317 22.6337L4.94257 22.6345L5.02197 22.6953ZM5.38232 20.1641L5.28819 20.1303L5.28799 20.1309L5.38232 20.1641ZM5.86572 19.4565L5.93246 19.531L5.93251 19.531L5.86572 19.4565ZM6.97754 27.103L7.07224 27.1351L7.10502 27.0385L7.00771 27.0077L6.97754 27.103ZM6.80615 27.6084L6.77859 27.7045L6.87023 27.7308L6.90085 27.6405L6.80615 27.6084ZM5.86572 27.1338L5.79899 27.2083L5.79947 27.2087L5.86572 27.1338ZM5.38232 26.4263L5.28799 26.4594L5.2882 26.46L5.38232 26.4263ZM4.8418 23.7456L4.78715 23.8294L4.78929 23.8307L4.8418 23.7456ZM4.31006 23.6138H4.21006V23.7138H4.31006V23.6138ZM4.31006 23.0776V22.9776H4.21006V23.0776H4.31006ZM5.31641 23.2886L5.2681 23.3761L5.26852 23.3764L5.31641 23.2886ZM5.87891 23.8599L5.78902 23.9037L5.78968 23.905L5.87891 23.8599ZM6.14258 26.2329L6.04606 26.2591L6.04643 26.2604L6.14258 26.2329ZM6.42822 26.7646L6.35324 26.8308L6.35332 26.8309L6.42822 26.7646ZM6.71154 19.0143L6.88292 19.5153L7.07216 19.4505L6.90077 18.9496L6.71154 19.0143ZM6.94785 19.3874C6.57752 19.5026 6.31217 19.7137 6.16629 20.0249L6.34738 20.1098C6.46518 19.8585 6.68029 19.6801 7.00723 19.5784L6.94785 19.3874ZM6.16646 20.0246C6.0273 20.3184 5.95908 20.6527 5.95908 21.0254H6.15908C6.15908 20.6773 6.2227 20.373 6.34721 20.1102L6.16646 20.0246ZM5.95908 21.0254V21.9351H6.15908V21.0254H5.95908ZM5.95908 21.9351C5.95908 22.2139 5.90202 22.465 5.78946 22.6901L5.96835 22.7796C6.09602 22.5242 6.15908 22.2421 6.15908 21.9351H5.95908ZM5.78924 22.6906C5.68216 22.9074 5.51033 23.0821 5.26852 23.214L5.36429 23.3895C5.63811 23.2402 5.84128 23.0369 5.96857 22.7791L5.78924 22.6906ZM5.2681 23.2142C5.033 23.3439 4.71599 23.4127 4.31006 23.4127V23.6127C4.73616 23.6127 5.09004 23.5409 5.36471 23.3893L5.2681 23.2142ZM4.41006 23.5127V22.9766H4.21006V23.5127H4.41006ZM4.31006 23.0766C4.65897 23.0766 4.93207 22.9772 5.10137 22.7561L4.94257 22.6345C4.82476 22.7884 4.62326 22.8766 4.31006 22.8766V23.0766ZM5.10078 22.7569C5.26504 22.5466 5.3417 22.2691 5.3417 21.9351H5.1417C5.1417 22.2397 5.07188 22.469 4.94317 22.6337L5.10078 22.7569ZM5.3417 21.9351V21.0254H5.1417V21.9351H5.3417ZM5.3417 21.0254C5.3417 20.7281 5.38698 20.4523 5.47666 20.1972L5.28799 20.1309C5.19017 20.4091 5.1417 20.7075 5.1417 21.0254H5.3417ZM5.47645 20.1978C5.5672 19.9448 5.7185 19.7227 5.93246 19.531L5.79899 19.3821C5.56177 19.5946 5.39081 19.8442 5.2882 20.1303L5.47645 20.1978ZM5.93251 19.531C6.14633 19.3391 6.44453 19.1868 6.83306 19.0782L6.77924 18.8856C6.3709 18.9997 6.04214 19.1639 5.79893 19.3821L5.93251 19.531ZM6.88284 27.0709L6.71145 27.5763L6.90085 27.6405L7.07224 27.1351L6.88284 27.0709ZM6.83372 27.5123C6.44474 27.4007 6.14609 27.2483 5.93198 27.0589L5.79947 27.2087C6.04239 27.4236 6.37069 27.5876 6.77859 27.7045L6.83372 27.5123ZM5.93246 27.0593C5.7185 26.8676 5.5672 26.6455 5.47645 26.3925L5.2882 26.46C5.39081 26.7461 5.56177 26.9957 5.79899 27.2083L5.93246 27.0593ZM5.47666 26.3931C5.38698 26.1381 5.3417 25.8623 5.3417 25.5649H5.1417C5.1417 25.8829 5.19017 26.1813 5.28799 26.4594L5.47666 26.3931ZM5.3417 25.5649V24.6597H5.1417V25.5649H5.3417ZM5.3417 24.6597C5.3417 24.4361 5.30805 24.2379 5.23738 24.0676L5.05266 24.1443C5.1109 24.2846 5.1417 24.4555 5.1417 24.6597H5.3417ZM5.23738 24.0676C5.16521 23.8938 5.05059 23.7569 4.89431 23.6605L4.78929 23.8307C4.90839 23.9042 4.99592 24.0076 5.05266 24.1443L5.23738 24.0676ZM4.89642 23.6618C4.74047 23.5601 4.54231 23.5138 4.31006 23.5138V23.7138C4.51726 23.7138 4.67359 23.7553 4.78717 23.8294L4.89642 23.6618ZM4.41006 23.6138V23.0776H4.21006V23.6138H4.41006ZM4.31006 23.1776C4.71599 23.1776 5.033 23.2464 5.2681 23.3761L5.36471 23.201C5.09004 23.0495 4.73616 22.9776 4.31006 22.9776V23.1776ZM5.26852 23.3764C5.51 23.5081 5.68184 23.684 5.78903 23.9037L5.96878 23.816C5.8416 23.5553 5.63844 23.3503 5.36429 23.2008L5.26852 23.3764ZM5.78968 23.905C5.90195 24.1268 5.95908 24.3777 5.95908 24.6597H6.15908C6.15908 24.3499 6.0961 24.0675 5.96813 23.8147L5.78968 23.905ZM5.95908 24.6597V25.5649H6.15908V24.6597H5.95908ZM5.95908 25.5649C5.95908 25.8129 5.98781 26.0445 6.04607 26.2591L6.23909 26.2067C6.18602 26.0112 6.15908 25.7975 6.15908 25.5649H5.95908ZM6.04643 26.2604C6.10881 26.4787 6.21087 26.6695 6.35324 26.8308L6.50321 26.6985C6.3819 26.561 6.29353 26.3972 6.23873 26.2054L6.04643 26.2604ZM6.35332 26.8309C6.50223 26.9992 6.70202 27.1207 6.94737 27.1984L7.00771 27.0077C6.79017 26.9388 6.62375 26.8348 6.50312 26.6984L6.35332 26.8309ZM10.4185 19.6016V19.5016H10.3185V19.6016H10.4185ZM11.2622 19.6016H11.3622V19.5016H11.2622V19.6016ZM10.2866 25.8638L10.331 25.9534L10.3313 25.9532L10.2866 25.8638ZM7.22363 24.229V24.129H7.12363V24.229H7.22363ZM8.07178 24.229H8.17178V24.129H8.07178V24.229ZM8.63428 25.2749L8.59199 25.3655L8.59256 25.3658L8.63428 25.2749ZM9.84277 25.2573L9.88983 25.3456L9.89036 25.3453L9.84277 25.2573ZM10.2646 24.8311L10.3524 24.879L10.3527 24.8785L10.2646 24.8311ZM10.5185 24.1323V19.6016H10.3185V24.1323H10.5185ZM10.4185 19.7016H11.2622V19.5016H10.4185V19.7016ZM11.1622 19.6016V24.1323H11.3622V19.6016H11.1622ZM11.1622 24.1323C11.1622 24.5406 11.0786 24.8779 10.917 25.149L11.0888 25.2514C11.273 24.9424 11.3622 24.5678 11.3622 24.1323H11.1622ZM10.917 25.149C10.7541 25.4225 10.5296 25.6305 10.2419 25.7743L10.3313 25.9532C10.653 25.7924 10.9061 25.558 11.0888 25.2514L10.917 25.149ZM10.2422 25.7742C9.9564 25.9157 9.62485 25.9879 9.24512 25.9879V26.1879C9.65054 26.1879 10.0133 26.1107 10.331 25.9534L10.2422 25.7742ZM9.24512 25.9879C8.86402 25.9879 8.52955 25.9225 8.23967 25.7943L8.15877 25.9772C8.47826 26.1185 8.84106 26.1879 9.24512 26.1879V25.9879ZM8.23967 25.7943C7.95274 25.6674 7.72958 25.4754 7.56761 25.2173L7.39821 25.3237C7.58194 25.6164 7.83632 25.8346 8.15877 25.9772L8.23967 25.7943ZM7.56761 25.2173C7.40726 24.9619 7.32363 24.6345 7.32363 24.229H7.12363C7.12363 24.6614 7.21286 25.0284 7.39821 25.3237L7.56761 25.2173ZM7.22363 24.329H8.07178V24.129H7.22363V24.329ZM7.97178 24.229C7.97178 24.5101 8.02364 24.7501 8.13455 24.9425L8.30783 24.8426C8.21952 24.6894 8.17178 24.4869 8.17178 24.229H7.97178ZM8.13455 24.9425C8.2441 25.1326 8.39704 25.2745 8.59199 25.3655L8.67657 25.1843C8.51995 25.1112 8.3975 24.9982 8.30783 24.8426L8.13455 24.9425ZM8.59256 25.3658C8.78631 25.4547 9.00452 25.4979 9.24512 25.4979V25.2979C9.02868 25.2979 8.83966 25.2591 8.67599 25.184L8.59256 25.3658ZM9.24512 25.4979C9.48223 25.4979 9.69793 25.4479 9.88983 25.3456L9.79571 25.1691C9.63605 25.2542 9.45332 25.2979 9.24512 25.2979V25.4979ZM9.89036 25.3453C10.0869 25.2389 10.2411 25.0825 10.3524 24.879L10.1769 24.7831C10.0831 24.9546 9.95604 25.0824 9.79519 25.1694L9.89036 25.3453ZM10.3527 24.8785C10.4649 24.67 10.5185 24.4198 10.5185 24.1323H10.3185C10.3185 24.3956 10.2694 24.6112 10.1766 24.7836L10.3527 24.8785ZM16.0391 23.9873L15.9454 24.0224L15.9465 24.0253L16.0391 23.9873ZM15.8018 23.6709L15.7373 23.7474L15.7383 23.7482L15.8018 23.6709ZM15.3359 23.4028L15.2962 23.4946L15.2967 23.4948L15.3359 23.4028ZM14.5889 23.1436L14.5605 23.2394L14.5609 23.2396L14.5889 23.1436ZM13.7319 22.8315L13.6902 22.9224L13.691 22.9228L13.7319 22.8315ZM13.1079 20.0146L13.1711 20.0922L13.1712 20.092L13.1079 20.0146ZM15.9116 19.7905L15.8632 19.8781L15.8642 19.8785L15.9116 19.7905ZM16.6807 20.5068L16.5947 20.5579L16.5949 20.5583L16.6807 20.5068ZM16.9443 21.4473V21.5473H17.0443V21.4473H16.9443ZM16.1006 21.4473H16.0006V21.5473H16.1006V21.4473ZM15.9468 20.8101L15.859 20.858L15.8594 20.8586L15.9468 20.8101ZM15.481 20.3706L15.4347 20.4593L15.4357 20.4598L15.481 20.3706ZM13.5034 20.7134L13.4185 20.6605L13.4178 20.6617L13.5034 20.7134ZM13.4463 21.6143L13.3568 21.659L13.3583 21.6618L13.4463 21.6143ZM13.7144 21.9175L13.6528 21.9963L13.6538 21.997L13.7144 21.9175ZM14.1802 22.1768L14.1413 22.2689L14.1418 22.2691L14.1802 22.1768ZM14.8613 22.4053L14.8885 22.309L14.8881 22.3089L14.8613 22.4053ZM16.4521 23.1743L16.384 23.2475L16.3853 23.2487L16.4521 23.1743ZM16.8345 23.7061L16.742 23.7441L16.7427 23.7458L16.8345 23.7061ZM15.6436 25.9692L15.6714 26.0653L15.6721 26.0651L15.6436 25.9692ZM13.855 25.9648L13.8272 26.0609L13.8275 26.061L13.855 25.9648ZM13.0771 25.5957L13.0193 25.6773L13.0198 25.6776L13.0771 25.5957ZM12.519 24.9893L12.432 25.0385L12.4327 25.0398L12.519 24.9893ZM12.3125 24.1455V24.0455H12.2125V24.1455H12.3125ZM13.1562 24.1455H13.2563V24.0455H13.1562V24.1455ZM13.2837 24.7124L13.1956 24.7597L13.196 24.7604L13.2837 24.7124ZM13.6309 25.0991L13.5735 25.181L13.5743 25.1816L13.6309 25.0991ZM14.1362 25.3276L14.1106 25.4243L14.1123 25.4247L14.1362 25.3276ZM15.9468 24.9233L15.8653 24.8654L15.8646 24.8664L15.9468 24.9233ZM16.2094 24.3828C16.2094 24.223 16.1843 24.0779 16.1316 23.9493L15.9465 24.0253C15.9876 24.1252 16.0094 24.2438 16.0094 24.3828H16.2094ZM16.1327 23.9522C16.0815 23.8158 15.9906 23.6965 15.8652 23.5936L15.7383 23.7482C15.8415 23.8328 15.9087 23.9245 15.9454 24.0224L16.1327 23.9522ZM15.8662 23.5944C15.7445 23.492 15.5795 23.398 15.3752 23.3108L15.2967 23.4948C15.4908 23.5776 15.6363 23.6623 15.7373 23.7474L15.8662 23.5944ZM15.3757 23.3111C15.1742 23.2239 14.9209 23.1361 14.6168 23.0475L14.5609 23.2396C14.8603 23.3268 15.1051 23.4119 15.2962 23.4946L15.3757 23.3111ZM14.6173 23.0477C14.3044 22.955 14.023 22.8524 13.7728 22.7403L13.691 22.9228C13.9506 23.0392 14.2405 23.1446 14.5605 23.2394L14.6173 23.0477ZM13.7737 22.7407C13.5252 22.6264 13.3146 22.4974 13.1407 22.3544L13.0136 22.5089C13.203 22.6647 13.4289 22.8023 13.6902 22.9224L13.7737 22.7407ZM13.1407 22.3544C12.9689 22.2131 12.839 22.0525 12.7491 21.8728L12.5702 21.9622C12.6737 22.1692 12.8221 22.3513 13.0136 22.5089L13.1407 22.3544ZM12.7491 21.8728C12.6604 21.6953 12.6146 21.4898 12.6146 21.2539H12.4146C12.4146 21.5161 12.4656 21.753 12.5702 21.9622L12.7491 21.8728ZM12.6146 21.2539C12.6146 21.0191 12.6629 20.8042 12.7584 20.6077L12.5785 20.5202C12.469 20.7456 12.4146 20.9907 12.4146 21.2539H12.6146ZM12.7584 20.6077C12.8543 20.4104 12.9914 20.2387 13.1711 20.0922L13.0447 19.9371C12.8436 20.1012 12.6877 20.2956 12.5785 20.5202L12.7584 20.6077ZM13.1712 20.092C13.354 19.9425 13.5728 19.825 13.8292 19.7405L13.7665 19.5505C13.4897 19.6418 13.2485 19.7704 13.0446 19.9373L13.1712 20.092ZM13.8292 19.7405C14.0841 19.6564 14.3707 19.6137 14.6899 19.6137V19.4137C14.3529 19.4137 14.0448 19.4588 13.7665 19.5505L13.8292 19.7405ZM14.6899 19.6137C15.1578 19.6137 15.5474 19.7035 15.8633 19.8781L15.96 19.703C15.6078 19.5084 15.183 19.4137 14.6899 19.4137V19.6137ZM15.8642 19.8785C16.187 20.0526 16.4292 20.2793 16.5947 20.5579L16.7666 20.4558C16.5806 20.1426 16.3101 19.8918 15.9591 19.7025L15.8642 19.8785ZM16.5949 20.5583C16.7616 20.8361 16.8443 21.1318 16.8443 21.4473H17.0443C17.0443 21.0947 16.9513 20.7635 16.7664 20.4554L16.5949 20.5583ZM16.9443 21.3473H16.1006V21.5473H16.9443V21.3473ZM16.2006 21.4473C16.2006 21.1924 16.1461 20.9629 16.0342 20.7615L15.8594 20.8586C15.9526 21.0264 16.0006 21.2217 16.0006 21.4473H16.2006ZM16.0345 20.7621C15.9214 20.5552 15.7505 20.3951 15.5262 20.2814L15.4357 20.4598C15.6275 20.557 15.7671 20.6899 15.859 20.858L16.0345 20.7621ZM15.5272 20.2819C15.3007 20.1639 15.0198 20.108 14.6899 20.108V20.308C14.9987 20.308 15.2452 20.3605 15.4347 20.4593L15.5272 20.2819ZM14.6899 20.108C14.379 20.108 14.1145 20.1547 13.9009 20.2535L13.9849 20.435C14.1639 20.3522 14.3973 20.308 14.6899 20.308V20.108ZM13.9009 20.2535C13.6902 20.351 13.5273 20.4859 13.4185 20.6605L13.5883 20.7662C13.6729 20.6303 13.803 20.5192 13.9849 20.435L13.9009 20.2535ZM13.4178 20.6617C13.3137 20.8341 13.2628 21.0295 13.2628 21.2451H13.4628C13.4628 21.0623 13.5056 20.9032 13.589 20.7651L13.4178 20.6617ZM13.2628 21.2451C13.2628 21.3941 13.2937 21.5326 13.3568 21.659L13.5357 21.5695C13.4876 21.4732 13.4628 21.3657 13.4628 21.2451H13.2628ZM13.3583 21.6618C13.4248 21.7849 13.5243 21.896 13.6528 21.9963L13.7759 21.8386C13.6641 21.7514 13.5849 21.6605 13.5343 21.5667L13.3583 21.6618ZM13.6538 21.997C13.7852 22.0972 13.9483 22.1875 14.1413 22.2689L14.219 22.0846C14.037 22.0078 13.8896 21.9253 13.775 21.8379L13.6538 21.997ZM14.1418 22.2691C14.337 22.3502 14.5681 22.4276 14.8346 22.5016L14.8881 22.3089C14.6272 22.2364 14.4042 22.1615 14.2185 22.0844L14.1418 22.2691ZM14.8342 22.5015C15.1935 22.6029 15.5013 22.7153 15.7586 22.8383L15.8449 22.6578C15.5748 22.5288 15.2558 22.4127 14.8885 22.309L14.8342 22.5015ZM15.7586 22.8383C16.0154 22.961 16.2231 23.0977 16.384 23.2475L16.5203 23.1011C16.3413 22.9345 16.1154 22.7871 15.8449 22.6578L15.7586 22.8383ZM16.3853 23.2487C16.5479 23.3948 16.6661 23.5599 16.742 23.7441L16.9269 23.668C16.8388 23.4538 16.7021 23.2644 16.519 23.0999L16.3853 23.2487ZM16.7427 23.7458C16.8214 23.9276 16.8619 24.1364 16.8619 24.374H17.0619C17.0619 24.1136 17.0175 23.8771 16.9262 23.6663L16.7427 23.7458ZM16.8619 24.374C16.8619 24.6209 16.8121 24.8412 16.7143 25.0368L16.8932 25.1263C17.0063 24.9 17.0619 24.6486 17.0619 24.374H16.8619ZM16.7143 25.0368C16.616 25.2335 16.4752 25.4019 16.2905 25.5425L16.4116 25.7016C16.6195 25.5434 16.7805 25.3515 16.8932 25.1263L16.7143 25.0368ZM16.2905 25.5425C16.1053 25.6835 15.8807 25.7943 15.615 25.8734L15.6721 26.0651C15.9572 25.9802 16.2043 25.8595 16.4116 25.7016L16.2905 25.5425ZM15.6157 25.8732C15.3538 25.9492 15.0587 25.9879 14.7295 25.9879V26.1879C15.0741 26.1879 15.3884 26.1474 15.6714 26.0653L15.6157 25.8732ZM14.7295 25.9879C14.443 25.9879 14.1607 25.9482 13.8825 25.8687L13.8275 26.061C14.1235 26.1456 14.4242 26.1879 14.7295 26.1879V25.9879ZM13.8827 25.8688C13.6088 25.7897 13.3595 25.6713 13.1345 25.5138L13.0198 25.6776C13.2635 25.8482 13.5328 25.9759 13.8272 26.0609L13.8827 25.8688ZM13.135 25.5141C12.9149 25.3581 12.7387 25.1665 12.6053 24.9387L12.4327 25.0398C12.5807 25.2925 12.7765 25.5052 13.0193 25.6773L13.135 25.5141ZM12.6061 24.94C12.478 24.7139 12.4125 24.4501 12.4125 24.1455H12.2125C12.2125 24.4796 12.2847 24.7783 12.432 25.0385L12.6061 24.94ZM12.3125 24.2455H13.1562V24.0455H12.3125V24.2455ZM13.0562 24.1455C13.0562 24.3781 13.1013 24.5841 13.1956 24.7597L13.3718 24.6651C13.2962 24.5243 13.2563 24.3524 13.2563 24.1455H13.0562ZM13.196 24.7604C13.2884 24.9293 13.4146 25.0698 13.5735 25.181L13.6882 25.0172C13.5542 24.9234 13.4489 24.806 13.3714 24.6644L13.196 24.7604ZM13.5743 25.1816C13.7338 25.291 13.9128 25.3718 14.1106 25.4243L14.1619 25.231C13.9847 25.1839 13.8268 25.1123 13.6874 25.0167L13.5743 25.1816ZM14.1123 25.4247C14.3109 25.4736 14.5167 25.4979 14.7295 25.4979V25.2979C14.5321 25.2979 14.3424 25.2754 14.1601 25.2305L14.1123 25.4247ZM14.7295 25.4979C15.034 25.4979 15.2979 25.4558 15.5181 25.3678L15.4438 25.1821C15.2538 25.2581 15.0167 25.2979 14.7295 25.2979V25.4979ZM15.5181 25.3678C15.7378 25.2799 15.9104 25.1516 16.029 24.9803L15.8646 24.8664C15.7723 24.9997 15.6342 25.1059 15.4438 25.1821L15.5181 25.3678ZM16.0283 24.9813C16.15 24.8102 16.2094 24.6092 16.2094 24.3828H16.0094C16.0094 24.5725 15.9603 24.7318 15.8653 24.8654L16.0283 24.9813ZM21.4575 25.877L21.4169 25.7856L21.4166 25.7857L21.4575 25.877ZM19.3613 25.877L19.3204 25.9682L19.3207 25.9683L19.3613 25.877ZM18.5439 25.2661L18.468 25.3312L18.4684 25.3317L18.5439 25.2661ZM18.0078 21.311L17.9129 21.2796L17.9127 21.2801L18.0078 21.311ZM18.5396 20.3398L18.6155 20.4049L18.6158 20.4045L18.5396 20.3398ZM19.3525 19.7246L19.3119 19.6332L19.3116 19.6334L19.3525 19.7246ZM21.4487 19.7246L21.4078 19.8158L21.4081 19.816L21.4487 19.7246ZM22.2617 20.3398L22.185 20.404L22.1858 20.4049L22.2617 20.3398ZM22.7847 21.311L22.6893 21.3411L22.6896 21.342L22.7847 21.311ZM22.0112 21.5791L21.9144 21.6043L21.9147 21.6052L22.0112 21.5791ZM21.1235 20.3882L21.0803 20.4784L21.0808 20.4786L21.1235 20.3882ZM19.6777 20.3882L19.6345 20.298L19.634 20.2982L19.6777 20.3882ZM19.1328 20.8408L19.0534 20.7801L19.0528 20.7808L19.1328 20.8408ZM18.7856 24.0225L18.6893 24.0492L18.6893 24.0494L18.7856 24.0225ZM19.1372 24.7651L19.0573 24.8253L19.0583 24.8266L19.1372 24.7651ZM19.6865 25.2178L19.6428 25.3077L19.6433 25.3079L19.6865 25.2178ZM21.6772 24.7651L21.5968 24.7057L21.5967 24.7059L21.6772 24.7651ZM22.0156 24.0225L22.1124 24.0476L22.1125 24.0474L22.0156 24.0225ZM22.8692 22.5986V23.0029H23.0692V22.5986H22.8692ZM22.8692 23.0029C22.8692 23.4752 22.8102 23.8955 22.6937 24.2648L22.8844 24.325C23.0082 23.9327 23.0692 23.4916 23.0692 23.0029H22.8692ZM22.6937 24.2648C22.577 24.6349 22.41 24.9464 22.1942 25.2015L22.3468 25.3307C22.5821 25.0526 22.7609 24.7167 22.8844 24.325L22.6937 24.2648ZM22.1942 25.2015C21.9782 25.4567 21.7194 25.6511 21.4169 25.7856L21.4981 25.9683C21.8284 25.8215 22.1116 25.6087 22.3468 25.3307L22.1942 25.2015ZM21.4166 25.7857C21.1176 25.9198 20.7803 25.9879 20.4028 25.9879V26.1879C20.8047 26.1879 21.1705 26.1153 21.4984 25.9682L21.4166 25.7857ZM20.4028 25.9879C20.0376 25.9879 19.7044 25.92 19.4019 25.7856L19.3207 25.9683C19.651 26.1151 20.0122 26.1879 20.4028 26.1879V25.9879ZM19.4023 25.7857C19.1024 25.6512 18.8416 25.4565 18.6195 25.2006L18.4684 25.3317C18.7091 25.6089 18.9933 25.8215 19.3204 25.9682L19.4023 25.7857ZM18.6199 25.201C18.4009 24.9456 18.2296 24.6338 18.1071 24.2635L17.9173 24.3263C18.0468 24.7178 18.2299 25.0534 18.468 25.3312L18.6199 25.201ZM18.1071 24.2635C17.9851 23.8946 17.9232 23.4748 17.9232 23.0029H17.7232C17.7232 23.492 17.7874 23.9336 17.9173 24.3263L18.1071 24.2635ZM17.9232 23.0029V22.5986H17.7232V23.0029H17.9232ZM17.9232 22.5986C17.9232 22.1266 17.9837 21.7081 18.1029 21.342L17.9127 21.2801C17.7858 21.6698 17.7232 22.1098 17.7232 22.5986H17.9232ZM18.1028 21.3424C18.2252 20.9722 18.3966 20.6603 18.6155 20.4049L18.4636 20.2748C18.2255 20.5526 18.0424 20.8882 17.9129 21.2796L18.1028 21.3424ZM18.6158 20.4045C18.835 20.146 19.094 19.9502 19.3935 19.8158L19.3116 19.6334C18.9841 19.7803 18.7012 19.9946 18.4633 20.2752L18.6158 20.4045ZM19.3932 19.816C19.6956 19.6816 20.0288 19.6137 20.394 19.6137V19.4137C20.0034 19.4137 19.6422 19.4864 19.3119 19.6332L19.3932 19.816ZM20.394 19.6137C20.7715 19.6137 21.1088 19.6817 21.4078 19.8158L21.4897 19.6334C21.1617 19.4862 20.7959 19.4137 20.394 19.4137V19.6137ZM21.4081 19.816C21.7104 19.9503 21.9691 20.146 22.185 20.404L22.3384 20.2757C22.1032 19.9946 21.8199 19.7801 21.4893 19.6332L21.4081 19.816ZM22.1858 20.4049C22.4044 20.66 22.5727 20.9714 22.6893 21.3411L22.88 21.281C22.7564 20.889 22.5761 20.5529 22.3376 20.2748L22.1858 20.4049ZM22.6896 21.342C22.8088 21.7081 22.8692 22.1266 22.8692 22.5986H23.0692C23.0692 22.1098 23.0067 21.6698 22.8798 21.2801L22.6896 21.342ZM22.2299 23.0029V22.5898H22.0299V23.0029H22.2299ZM22.2299 22.5898C22.2299 22.2023 22.1897 21.8563 22.1078 21.553L21.9147 21.6052C21.991 21.8878 22.0299 22.2157 22.0299 22.5898H22.2299ZM22.108 21.5539C22.0293 21.251 21.9116 20.9924 21.7529 20.7808L21.5929 20.9008C21.733 21.0876 21.8409 21.3212 21.9144 21.6043L22.108 21.5539ZM21.7529 20.7808C21.5941 20.5691 21.3984 20.4075 21.1663 20.2978L21.0808 20.4786C21.2823 20.5739 21.4528 20.7141 21.5929 20.9008L21.7529 20.7808ZM21.1668 20.298C20.9375 20.1881 20.6792 20.1344 20.394 20.1344V20.3344C20.6538 20.3344 20.8818 20.3832 21.0803 20.4784L21.1668 20.298ZM20.394 20.1344C20.1171 20.1344 19.8633 20.1883 19.6345 20.298L19.721 20.4784C19.9199 20.383 20.1436 20.3344 20.394 20.3344V20.1344ZM19.634 20.2982C19.4081 20.4081 19.2145 20.5694 19.0534 20.7801L19.2122 20.9016C19.3558 20.7138 19.5255 20.5734 19.7215 20.4781L19.634 20.2982ZM19.0528 20.7808C18.8945 20.9919 18.774 21.2498 18.6893 21.5521L18.8819 21.6061C18.9614 21.3225 19.0723 21.0882 19.2128 20.9008L19.0528 20.7808ZM18.6893 21.5521C18.6043 21.8558 18.5626 22.2021 18.5626 22.5898H18.7626C18.7626 22.2159 18.8029 21.8884 18.8819 21.6061L18.6893 21.5521ZM18.5626 22.5898V23.0029H18.7626V22.5898H18.5626ZM18.5626 23.0029C18.5626 23.3936 18.6043 23.7427 18.6893 24.0492L18.882 23.9957C18.8029 23.7104 18.7626 23.3798 18.7626 23.0029H18.5626ZM18.6893 24.0494C18.7741 24.352 18.8962 24.6114 19.0573 24.8253L19.2171 24.705C19.0736 24.5145 18.9613 24.2788 18.8819 23.9955L18.6893 24.0494ZM19.0583 24.8266C19.2223 25.0369 19.4171 25.198 19.6428 25.3077L19.7302 25.1278C19.5341 25.0325 19.3627 24.8918 19.2161 24.7037L19.0583 24.8266ZM19.6433 25.3079C19.8721 25.4176 20.1259 25.4716 20.4028 25.4716V25.2716C20.1524 25.2716 19.9287 25.223 19.7298 25.1276L19.6433 25.3079ZM20.4028 25.4716C20.6908 25.4716 20.9506 25.4179 21.18 25.3079L21.0935 25.1276C20.8951 25.2227 20.6657 25.2716 20.4028 25.2716V25.4716ZM21.18 25.3079C21.4093 25.198 21.602 25.0362 21.7578 24.8244L21.5967 24.7059C21.4595 24.8925 21.2919 25.0325 21.0935 25.1276L21.18 25.3079ZM21.7577 24.8246C21.9161 24.6103 22.0337 24.3505 22.1124 24.0476L21.9188 23.9973C21.8452 24.2804 21.7373 24.5157 21.5968 24.7057L21.7577 24.8246ZM22.1125 24.0474C22.1912 23.7416 22.2299 23.3931 22.2299 23.0029H22.0299C22.0299 23.3804 21.9924 23.7115 21.9188 23.9975L22.1125 24.0474ZM29.1611 19.6016H29.2611V19.5016H29.1611V19.6016ZM29.1611 26V26.1H29.2611V26H29.1611ZM28.3086 26L28.2249 26.0547L28.2544 26.1H28.3086V26ZM25.0874 21.0649L25.1711 21.0103L24.9874 20.7288V21.0649H25.0874ZM25.0874 26V26.1H25.1874V26H25.0874ZM24.2393 26H24.1393V26.1H24.2393V26ZM24.2393 19.6016V19.5016H24.1393V19.6016H24.2393ZM25.0874 19.6016L25.1711 19.5468L25.1415 19.5016H25.0874V19.6016ZM28.3218 24.5498L28.2381 24.6045L28.4218 24.8856V24.5498H28.3218ZM28.3218 19.6016V19.5016H28.2218V19.6016H28.3218ZM29.0611 19.6016V26H29.2611V19.6016H29.0611ZM29.1611 25.9H28.3086V26.1H29.1611V25.9ZM28.3923 25.9453L25.1711 21.0103L25.0037 21.1196L28.2249 26.0547L28.3923 25.9453ZM24.9874 21.0649V26H25.1874V21.0649H24.9874ZM25.0874 25.9H24.2393V26.1H25.0874V25.9ZM24.3393 26V19.6016H24.1393V26H24.3393ZM24.2393 19.7016H25.0874V19.5016H24.2393V19.7016ZM25.0037 19.6563L28.2381 24.6045L28.4055 24.4951L25.1711 19.5468L25.0037 19.6563ZM28.4218 24.5498V19.6016H28.2218V24.5498H28.4218ZM28.3218 19.7016H29.1611V19.5016H28.3218V19.7016ZM30.0093 19.4829L29.9147 19.4505L29.8814 19.5477L29.9794 19.5784L30.0093 19.4829ZM30.1807 18.9819L30.2074 18.8856L30.1166 18.8604L30.086 18.9496L30.1807 18.9819ZM31.1211 19.4565L31.0538 19.5305L31.0548 19.5314L31.1211 19.4565ZM31.6045 20.1641L31.51 20.1969L31.5102 20.1972L31.6045 20.1641ZM31.8418 22.4888L31.7492 22.5265L31.7494 22.5271L31.8418 22.4888ZM32.1406 22.8491L32.0873 22.9337L32.0881 22.9342L32.1406 22.8491ZM32.6768 22.9766H32.7768V22.8766H32.6768V22.9766ZM32.6768 23.4731V23.5731H32.7768V23.4731H32.6768ZM31.6704 23.2754L31.6241 23.364L31.6249 23.3644L31.6704 23.2754ZM31.1035 22.7261L31.0141 22.7708L31.0148 22.7721L31.1035 22.7261ZM30.8442 20.3574L30.7476 20.3833L30.7477 20.3836L30.8442 20.3574ZM30.5586 19.8213L30.483 19.8867L30.4843 19.8883L30.5586 19.8213ZM30.1807 27.6084L30.086 27.6405L30.1165 27.7306L30.208 27.7046L30.1807 27.6084ZM30.0093 27.103L29.9791 27.0077L29.8818 27.0385L29.9146 27.1351L30.0093 27.103ZM30.5542 26.7646L30.4799 26.6977L30.4786 26.6992L30.5542 26.7646ZM30.8398 26.2329L30.7437 26.2054L30.7433 26.2067L30.8398 26.2329ZM31.1035 23.8687L31.0148 23.8226L31.0143 23.8235L31.1035 23.8687ZM31.6704 23.3237L31.7159 23.4128L31.7167 23.4124L31.6704 23.3237ZM32.6768 23.1216H32.7768V23.0216H32.6768V23.1216ZM32.6768 23.6138V23.7138H32.7768V23.6138H32.6768ZM31.9648 23.8994L32.0436 23.961L32.0441 23.9604L31.9648 23.8994ZM31.6045 26.4263L31.5102 26.3931L31.51 26.3934L31.6045 26.4263ZM31.1211 27.1338L31.0548 27.0589L31.0544 27.0593L31.1211 27.1338ZM30.1039 19.5153L30.2753 19.0143L30.086 18.9496L29.9147 19.4505L30.1039 19.5153ZM30.1539 19.0783C30.5455 19.1869 30.8433 19.3391 31.0538 19.5305L31.1884 19.3825C30.9478 19.1638 30.6186 18.9996 30.2074 18.8856L30.1539 19.0783ZM31.0548 19.5314C31.2714 19.723 31.4223 19.9447 31.51 20.1969L31.6989 20.1312C31.5992 19.8444 31.4278 19.5943 31.1874 19.3816L31.0548 19.5314ZM31.5102 20.1972C31.5998 20.4523 31.6451 20.7281 31.6451 21.0254H31.8451C31.8451 20.7075 31.7966 20.4091 31.6988 20.1309L31.5102 20.1972ZM31.6451 21.0254V21.9351H31.8451V21.0254H31.6451ZM31.6451 21.9351C31.6451 22.156 31.6789 22.3539 31.7492 22.5265L31.9344 22.451C31.8758 22.3073 31.8451 22.136 31.8451 21.9351H31.6451ZM31.7494 22.5271C31.8213 22.7003 31.9341 22.8371 32.0873 22.9337L32.194 22.7645C32.0777 22.6912 31.9912 22.5877 31.9342 22.4504L31.7494 22.5271ZM32.0881 22.9342C32.2463 23.0318 32.4449 23.0766 32.6768 23.0766V22.8766C32.4692 22.8766 32.3104 22.8363 32.1931 22.764L32.0881 22.9342ZM32.5768 22.9766V23.4731H32.7768V22.9766H32.5768ZM32.6768 23.3731C32.2732 23.3731 31.9549 23.3086 31.7159 23.1864L31.6249 23.3644C31.9015 23.5059 32.2542 23.5731 32.6768 23.5731V23.3731ZM31.7167 23.1868C31.4749 23.0604 31.3019 22.8912 31.1923 22.68L31.0148 22.7721C31.1454 23.0239 31.3503 23.2209 31.6241 23.364L31.7167 23.1868ZM31.193 22.6814C31.0835 22.4624 31.0277 22.2144 31.0277 21.9351H30.8277C30.8277 22.2417 30.8892 22.521 31.0141 22.7708L31.193 22.6814ZM31.0277 21.9351V21.0254H30.8277V21.9351H31.0277ZM31.0277 21.0254C31.0277 20.7774 30.999 20.5459 30.9407 20.3312L30.7477 20.3836C30.8008 20.5791 30.8277 20.7929 30.8277 21.0254H31.0277ZM30.9408 20.3316C30.8814 20.1094 30.7789 19.9163 30.6329 19.7543L30.4843 19.8883C30.6078 20.0251 30.6958 20.1894 30.7476 20.3833L30.9408 20.3316ZM30.6342 19.7559C30.4878 19.5866 30.2873 19.465 30.0391 19.3875L29.9794 19.5784C30.2 19.6473 30.3657 19.7512 30.483 19.8867L30.6342 19.7559ZM30.2754 27.5763L30.104 27.0709L29.9146 27.1351L30.086 27.6405L30.2754 27.5763ZM30.0394 27.1984C30.2849 27.1207 30.4836 26.999 30.6298 26.8301L30.4786 26.6992C30.3611 26.835 30.1966 26.9389 29.9791 27.0077L30.0394 27.1984ZM30.6285 26.8316C30.7743 26.6699 30.8768 26.4785 30.9364 26.2591L30.7433 26.2067C30.6915 26.3975 30.6036 26.5606 30.4799 26.6977L30.6285 26.8316ZM30.936 26.2604C30.9974 26.0453 31.0277 25.8133 31.0277 25.5649H30.8277C30.8277 25.797 30.7994 26.0103 30.7437 26.2054L30.936 26.2604ZM31.0277 25.5649V24.6597H30.8277V25.5649H31.0277ZM31.0277 24.6597C31.0277 24.3772 31.0836 24.1294 31.1927 23.9138L31.0143 23.8235C30.8891 24.0708 30.8277 24.3503 30.8277 24.6597H31.0277ZM31.1923 23.9147C31.3018 23.7038 31.4745 23.5362 31.7159 23.4128L31.6249 23.2347C31.3507 23.3749 31.1455 23.5706 31.0148 23.8226L31.1923 23.9147ZM31.7167 23.4124C31.9555 23.2875 32.2735 23.2216 32.6768 23.2216V23.0216C32.2539 23.0216 31.9009 23.0904 31.6241 23.2351L31.7167 23.4124ZM32.5768 23.1216V23.6138H32.7768V23.1216H32.5768ZM32.6768 23.5138C32.3297 23.5138 32.0573 23.6152 31.8856 23.8384L32.0441 23.9604C32.1653 23.8028 32.3675 23.7138 32.6768 23.7138V23.5138ZM31.886 23.8378C31.7218 24.0481 31.6451 24.3256 31.6451 24.6597H31.8451C31.8451 24.355 31.9149 24.1257 32.0436 23.961L31.886 23.8378ZM31.6451 24.6597V25.5649H31.8451V24.6597H31.6451ZM31.6451 25.5649C31.6451 25.8623 31.5998 26.1381 31.5102 26.3931L31.6988 26.4594C31.7966 26.1813 31.8451 25.8829 31.8451 25.5649H31.6451ZM31.51 26.3934C31.4223 26.6456 31.2714 26.8673 31.0548 27.0589L31.1874 27.2087C31.4278 26.996 31.5992 26.746 31.6989 26.4591L31.51 26.3934ZM31.0544 27.0593C30.8435 27.2483 30.5453 27.4006 30.1533 27.5122L30.208 27.7046C30.6188 27.5876 30.9475 27.4236 31.1878 27.2083L31.0544 27.0593Z" fill="black" mask="url(#path-3-outside-1_24_86)"/>
<path d="M34.4256 31H21.5741C20.7048 31 20 31.5596 20 32.25V46.8331C20 47.5234 20.7048 48.083 21.5741 48.083H34.4256C35.295 48.083 35.9997 47.5234 35.9997 46.8331V32.25C35.9997 31.5596 35.295 31 34.4256 31Z" fill="#6D97C4" stroke="#415A75" stroke-width="0.8" stroke-linecap="round" stroke-linejoin="round"/>
<path d="M33.4164 31.5H22.5833C22.3532 31.5 22.1666 31.6865 22.1666 31.9167V38.5832C22.1666 38.8133 22.3532 38.9999 22.5833 38.9999H33.4164C33.6466 38.9999 33.8331 38.8133 33.8331 38.5832V31.9167C33.8331 31.6865 33.6466 31.5 33.4164 31.5Z" fill="#EDEDED" stroke="#666666" stroke-width="0.5" stroke-linecap="round" stroke-linejoin="round"/>
<path d="M23.8333 33.5833H32.1665" stroke="#666666" stroke-linecap="round"/>
<path fill-rule="evenodd" clip-rule="evenodd" d="M23.0083 41.9306H32.9998V47.7497H23.0083V41.9306Z" fill="#EDEDED" stroke="#666666" stroke-width="0.6" stroke-linecap="round" stroke-linejoin="round"/>
<path fill-rule="evenodd" clip-rule="evenodd" d="M23.8408 42.6748H27.1682V46.8156H23.8408V42.6748Z" fill="#415A75" stroke="#E6E6E6" stroke-width="0.996" stroke-linecap="round" stroke-linejoin="round"/>
<path d="M36.3237 41.5001H31.3431C30.4173 41.5001 29.6668 42.2506 29.6668 43.1764V48.1571C29.6668 49.0828 30.4173 49.8333 31.3431 49.8333H36.3237C37.2495 49.8333 38 49.0828 38 48.1571V43.1764C38 42.2506 37.2495 41.5001 36.3237 41.5001Z" fill="#5A8C5A"/>
<path opacity="0.3" fill-rule="evenodd" clip-rule="evenodd" d="M30.5001 45.6667H37.1667V44.0001C37.1667 42.3335 36.75 42.3335 33.8334 42.3335C30.9168 42.3335 30.5001 42.3335 30.5001 44.0001V45.6667Z" fill="#FCFFFF"/>
<path fill-rule="evenodd" clip-rule="evenodd" d="M32.1898 47.3103L35.477 44.0232Z" fill="white"/>
<path d="M32.1898 47.3103L35.477 44.0232" stroke="white" stroke-width="2.20846" stroke-linecap="round" stroke-linejoin="round"/>
<path d="M24 35.233H32M24 37.233H32" stroke="#666666" stroke-linecap="round"/>
</svg>
